<svg xmlns="http://www.w3.org/2000/svg" width="101" height="34" viewBox="0 0 101 34">
    <path fill="#0065FF" fill-rule="evenodd" d="M73.073 7.51c.21-.03 6.564-.039 6.877-.01.047.095-.02.174-.05.254-.297.797-6.934 18.373-6.976 18.48h-6.698c-.08-.072-5.215-13.74-6.961-18.368-.029-.077-.064-.15-.113-.263v.001l-.036.088c-.012.027-.022.05-.03.073l-.026.067-2.15 6.164-4.17 11.952c-.36 1.034-.8 2.033-1.364 2.975-.491.821-1.069 1.575-1.764 2.237-1.055 1.005-2.29 1.697-3.687 2.105-.707.207-1.429.34-2.163.409-.601.056-1.202.087-1.806.08-.182-.003-.365-.01-.557-.038-.005-.086-.012-.16-.012-.233-.019-2.627-.006-5.4.026-5.592.052-.006.108-.019.165-.02.393-.006.786-.014 1.178-.06.483-.055.958-.143 1.413-.322.308-.12.395-.139.643-.338.84-.603 1.154-1.702.758-2.656l-.024-.057L38.614 7.79c-.037-.089-.103-.173-.083-.289.037-.006.067-.016.099-.016h6.823c.092.091.107.203.142.303.74 2.09 1.477 4.183 2.215 6.274l1.407 3.987c.025.069.053.137.092.24.033-.082.058-.132.072-.185.252-.925.502-1.85.752-2.776l2.06-7.63c.017-.065.04-.127.058-.181l.031-.018c.008-.004.016-.01.024-.01l13.588-.005c.042 0 .084.005.142.008.035.09.076.18.106.272l1.372 4.183c.655 1.996 1.31 3.992 1.97 5.987.024.073.016.172.122.218.194-.598.386-1.192.58-1.786l.573-1.76c.194-.594.385-1.19.579-1.784.193-.595.389-1.189.582-1.783.19-.587.378-1.175.571-1.761.196-.592.376-1.19.582-1.769zm14.368-.443c.725-.105 1.453-.13 2.179-.081 2.512.166 4.686 1.09 6.431 2.931 1.098 1.157 1.824 2.523 2.243 4.055.29 1.054.395 2.129.364 3.22-.018.62-.1 1.229-.258 1.829-.009.031-.02.062-.041.125H86.897c-.475 0-.949-.004-1.449.003.038.095.06.165.092.23.431.88 1.127 1.456 2.052 1.764.462.153.938.234 1.425.263.368.022.734.032 1.103.002 1.022-.084 1.933-.434 2.72-1.096.07-.058.139-.117.204-.173.176.084 4.264 2.927 4.508 3.135-.029.043-.055.092-.09.134-.917 1.11-2.05 1.932-3.376 2.491-.827.349-1.688.575-2.576.712-.847.13-1.699.17-2.552.139-1.804-.069-3.53-.455-5.12-1.332-2.338-1.29-3.842-3.24-4.54-5.814-.252-.93-.362-1.895-.343-2.858.036-1.848.474-3.584 1.433-5.16 1.227-2.014 2.982-3.37 5.223-4.107.596-.196 1.208-.322 1.83-.412zM7.393 0l3.566.01c2.752.016 5.244.853 7.45 2.5 1.852 1.384 3.194 3.167 4.079 5.294.425 1.02.706 2.081.873 3.175.156 1.02.194 2.044.128 3.07-.148 2.305-.8 4.459-2.06 6.408-1.78 2.755-4.275 4.544-7.452 5.38-.609.16-1.232.265-1.858.324-.559.053-1.118.082-1.679.081H.345c-.1 0-.198-.003-.303-.005-.015-.054-.033-.092-.035-.132-.006-.083-.004-.166-.004-.25L.004.397c0-.123-.022-.25.036-.382C.113.01.187.005.26.005 3.828.005 7.394-.01 10.96.01zM37 7.495v5.658h-3.54c-1.162 0-2.104.94-2.104 2.098v10.797h-6.21V13.684c0-3.418 2.78-6.19 6.21-6.19H37zM8.945 6.477l-1.783.003c-.065 0-.13.008-.201.013-.01.041-.021.072-.023.104-.023.375-.007 12.056.02 13.08l.003.07h.26c1.156-.001 2.312-.002 3.468 0 .418 0 .836-.025 1.245-.102 1.52-.284 2.757-1.004 3.668-2.21.74-.978 1.125-2.094 1.268-3.3.088-.742.076-1.486-.024-2.232-.073-.53-.199-1.054-.391-1.553-.57-1.477-1.536-2.588-2.956-3.27-.875-.419-1.807-.591-2.77-.599-1.19-.009-2.378-.002-3.567-.001zm82.604 6.647c-.926-.82-1.892-.937-2.884-.89-.293.013-.588.057-.87.142-1.27.381-2.018 1.214-2.4 2.354-.01.028-.001.061-.001.107h7.015c.03 0 .062-.01.105-.017-.07-.317-.192-.6-.338-.876-.162-.306-.368-.59-.627-.82z"/>
</svg>
